<svg xmlns="http://www.w3.org/2000/svg" width="160" height="96" viewBox="0 0 160 96" role="img" aria-label="Apple Pay">
  <rect width="160" height="96" rx="18" fill="#ffffff"/>
  <rect x="16" y="20" width="128" height="56" rx="14" fill="#101419"/>
  <path d="M46 34c4-6 10-7 13-7 1 6-3 11-9 13-2-2-3-4-4-6z" fill="#ffffff"/>
  <path d="M38 48c0-9 6-14 13-14 4 0 6 2 9 2s5-2 9-2c5 0 10 3 12 8-6 3-8 12-2 17-3 7-7 12-12 12-3 0-5-2-8-2s-5 2-8 2c-6 0-13-11-13-23z" fill="#ffffff"/>
  <text x="99" y="58" fill="#ffffff" font-family="Arial, Helvetica, sans-serif" font-size="25" font-weight="800" text-anchor="middle">Pay</text>
</svg>
