<svg xmlns="http://www.w3.org/2000/svg" width="160" height="96" viewBox="0 0 160 96" role="img" aria-label="Google Pay">
  <rect width="160" height="96" rx="18" fill="#ffffff"/>
  <path d="M47 34c5 0 9 2 12 5l-5 5c-2-2-4-3-7-3-5 0-9 4-9 9s4 9 9 9c4 0 7-2 8-5H47v-7h16c.2 1 .3 2 .3 3 0 10-7 17-16.3 17A17 17 0 1 1 47 34z" fill="#4285F4"/>
  <path d="M34 44l-6-5a17 17 0 0 1 25-3l-5 5c-5-4-11-2-14 3z" fill="#EA4335"/>
  <path d="M47 67c-7 0-13-4-16-10l6-5c2 5 5 8 10 8 4 0 7-2 8-5h8c-2 7-8 12-16 12z" fill="#34A853"/>
  <path d="M31 57a17 17 0 0 1 3-13l6 5c-1 2-1 4-1 6 0 1 0 2 1 3l-9-1z" fill="#FBBC04"/>
  <text x="107" y="57" fill="#202124" font-family="Arial, Helvetica, sans-serif" font-size="27" font-weight="700" text-anchor="middle">Pay</text>
</svg>
