<?xml version="1.0" encoding="UTF-8"?>
<svg version="1.1" xmlns="http://www.w3.org/2000/svg" width="1632" height="640">
<path d="M0 0 C538.56 0 1077.12 0 1632 0 C1632 211.2 1632 422.4 1632 640 C1093.44 640 554.88 640 0 640 C0 428.8 0 217.6 0 0 Z " fill="#0C1120" transform="translate(0,0)"/>
<path d="M0 0 C12.54 0 25.08 0 38 0 C42.49049612 10.10361628 42.49049612 10.10361628 43.45703125 13.8046875 C43.67866943 14.62517578 43.90030762 15.44566406 44.12866211 16.29101562 C44.35432861 17.14373047 44.57999512 17.99644531 44.8125 18.875 C46.95750815 26.67502964 49.44348263 34.23592834 52.30810547 41.79833984 C54.64842421 47.99024367 56.83182169 54.22442178 58.9375 60.5 C59.24421631 61.40298828 59.55093262 62.30597656 59.86694336 63.23632812 C60.14675049 64.07615234 60.42655762 64.91597656 60.71484375 65.78125 C60.96355225 66.52439453 61.21226074 67.26753906 61.46850586 68.03320312 C62 70 62 70 62 73 C62.66 73 63.32 73 64 73 C64.12117188 73.67546875 64.24234375 74.3509375 64.3671875 75.046875 C64.53476562 75.93890625 64.70234375 76.8309375 64.875 77.75 C65.03742188 78.63171875 65.19984375 79.5134375 65.3671875 80.421875 C65.96796264 82.86947744 66.77997117 84.80599857 68 87 C69.80506827 84.2923976 70.54929863 82.26759509 71.3828125 79.18359375 C73.78312857 70.69133625 76.90638346 62.3944512 79.85400391 54.07983398 C81.62787452 49.07155703 83.34708145 44.04957535 85 39 C85.66480706 36.97855414 86.33160477 34.95776227 87 32.9375 C87.309375 31.99777344 87.61875 31.05804688 87.9375 30.08984375 C88.7369786 27.76488943 89.57823665 25.48042459 90.4609375 23.1875 C92.09095213 18.87718772 93.37295831 14.49488216 94.625 10.0625 C96.86532825 2.13467175 96.86532825 2.13467175 98 1 C110.54 1 123.08 1 136 1 C136 38.95 136 76.9 136 116 C127.75 116 119.5 116 111 116 C110.97879356 108.50234365 110.9587889 101.00480142 110.94824982 93.50714111 C110.94305681 90.01255965 110.9361711 86.51800404 110.92456055 83.0234375 C110.86621638 64.99432864 111.12858734 47.01192841 112 29 C111.34 29 110.68 29 110 29 C109.89042969 29.59425781 109.78085937 30.18851562 109.66796875 30.80078125 C107.88171567 40.13867337 105.43843074 49.07790807 102.1015625 57.98046875 C100.82370563 61.48324664 99.65924943 65.01929236 98.5 68.5625 C97.11384751 72.79055507 95.65923825 76.95733587 93.9375 81.0625 C91.85489043 86.0975641 90.46072934 91.27415823 89.0078125 96.51953125 C87.15867984 102.9054894 84.97352204 109.05295592 82 115 C73.09 115 64.18 115 55 115 C52.57290117 108.93225292 50.32789432 103.15280717 48.5 96.9375 C46.71977915 91.06736045 44.60934517 85.54485848 42 80 C39.2413509 73.74079239 37.34724317 67.59047918 35.77734375 60.9375 C34.82563794 57.34110416 33.48842546 54.0146564 32.05078125 50.58984375 C27 38.14126394 27 38.14126394 27 33 C26.34 33 25.68 33 25 33 C25.03029297 33.8444165 25.06058594 34.68883301 25.09179688 35.55883789 C26.02106613 62.37719123 26.10463304 89.16743863 26 116 C17.42 116 8.84 116 0 116 C0 77.72 0 39.44 0 0 Z " fill="#4B7EE3" transform="translate(359,276)"/>
<path d="M0 0 C1.44301916 0.00560786 2.88604409 0.00987232 4.32907104 0.01286316 C8.09383417 0.02421853 11.85824004 0.05360308 15.62286377 0.0869751 C19.47769338 0.11787901 23.33258174 0.13141154 27.1875 0.14648438 C34.72674283 0.17848384 42.26561923 0.23117311 49.8046875 0.29296875 C49.8046875 6.89296875 49.8046875 13.49296875 49.8046875 20.29296875 C47.24775146 20.29913208 47.24775146 20.29913208 44.63916016 20.30541992 C38.97120388 20.3249116 33.3037217 20.36736846 27.63602638 20.42505932 C24.20371601 20.45917332 20.77184331 20.48441463 17.33935547 20.48852539 C13.38209084 20.49367073 9.42574695 20.53894255 5.46875 20.5859375 C4.25168365 20.58200485 3.03461731 20.5780722 1.78067017 20.57402039 C-6.46567093 20.71360754 -13.49083935 22.0796611 -19.80575562 27.73527527 C-27.24158639 36.11321734 -27.37659023 44.77138544 -27.3828125 55.35546875 C-27.40118164 56.95938477 -27.40118164 56.95938477 -27.41992188 58.59570312 C-27.43510659 66.97260284 -26.86041484 75.29766174 -24.1953125 83.29296875 C-23.5146875 83.78796875 -22.8340625 84.28296875 -22.1328125 84.79296875 C-21.4934375 85.28796875 -20.8540625 85.78296875 -20.1953125 86.29296875 C-20.1953125 87.28296875 -20.1953125 88.27296875 -20.1953125 89.29296875 C-14.25343042 90.77845292 -8.55505322 91.65000886 -2.44140625 91.92578125 C-1.65508316 91.96734344 -0.86876007 92.00890564 -0.05860901 92.05172729 C2.41635329 92.18092864 4.89168412 92.29963916 7.3671875 92.41796875 C9.06058269 92.50451034 10.75394267 92.5917439 12.44726562 92.6796875 C16.56603706 92.89338783 20.6851451 93.09284628 24.8046875 93.29296875 C24.8046875 85.04296875 24.8046875 76.79296875 24.8046875 68.29296875 C13.9146875 68.29296875 3.0246875 68.29296875 -8.1953125 68.29296875 C-8.1953125 61.03296875 -8.1953125 53.77296875 -8.1953125 46.29296875 C11.2746875 46.29296875 30.7446875 46.29296875 50.8046875 46.29296875 C50.8046875 69.06296875 50.8046875 91.83296875 50.8046875 115.29296875 C39.265 115.32390625 39.265 115.32390625 27.4921875 115.35546875 C25.10701904 115.36457275 22.72185059 115.37367676 20.2644043 115.38305664 C10.52418494 115.4049114 0.80344792 115.35585518 -8.92578125 114.85546875 C-10.0612011 114.79777061 -10.0612011 114.79777061 -11.21955872 114.73890686 C-22.89380326 114.05251027 -30.24284591 110.79519154 -39.1953125 103.29296875 C-40.22011719 102.43832031 -40.22011719 102.43832031 -41.265625 101.56640625 C-50.9098214 92.75720521 -54.58749888 79.00007216 -55.1953125 66.29296875 C-56.15697053 39.21628481 -56.15697053 39.21628481 -52.1953125 31.29296875 C-51.5353125 31.29296875 -50.8753125 31.29296875 -50.1953125 31.29296875 C-50.08316406 30.45765625 -50.08316406 30.45765625 -49.96875 29.60546875 C-48.65543452 21.98308868 -44.96568756 16.418697 -39.1953125 11.29296875 C-38.5353125 11.29296875 -37.8753125 11.29296875 -37.1953125 11.29296875 C-37.1953125 10.63296875 -37.1953125 9.97296875 -37.1953125 9.29296875 C-35.40930681 8.34472861 -33.61611005 7.41003146 -31.8203125 6.48046875 C-30.82257812 5.95839844 -29.82484375 5.43632812 -28.796875 4.8984375 C-19.12283277 0.58603907 -10.54357524 -0.12159366 0 0 Z " fill="#F5F6F6" transform="translate(816.1953125,276.70703125)"/>
<path d="M0 0 C7.92 0 15.84 0 24 0 C24 10.56 24 21.12 24 32 C32.71949206 31.92148488 32.71949206 31.92148488 41.4387207 31.81982422 C48.85596249 31.7864302 55.76462209 32.34187309 63 34 C63 34.66 63 35.32 63 36 C64.485 36.2784375 64.485 36.2784375 66 36.5625 C71.49168658 38.11717298 76.29438739 42.17355625 79.23046875 47.0390625 C80 49 80 49 80 52 C80.66 52 81.32 52 82 52 C85.64656766 65.50098265 88.28424344 81.29382779 81 94 C80.38705078 95.08861328 80.38705078 95.08861328 79.76171875 96.19921875 C76.3640748 101.89000939 73.07624635 106.96187682 67 110 C66.34 110 65.68 110 65 110 C64.505 111.485 64.505 111.485 64 113 C43.39577257 118.61933475 21.35675797 116 0 116 C0 77.72 0 39.44 0 0 Z " fill="#F5F5F5" transform="translate(1023,276)"/>
<path d="M0 0 C1.27463608 0.0028299 2.54927216 0.00565979 3.86253357 0.00857544 C7.22119915 0.0178226 10.57958335 0.03573379 13.93817139 0.0579834 C17.37737623 0.07858782 20.81661036 0.08760809 24.25585938 0.09765625 C30.98184736 0.11962892 37.70770434 0.15304055 44.43359375 0.1953125 C44.46247521 3.50779437 44.48035174 6.82024417 44.49609375 10.1328125 C44.50447266 11.07833984 44.51285156 12.02386719 44.52148438 12.99804688 C44.52470703 13.89716797 44.52792969 14.79628906 44.53125 15.72265625 C44.53648682 16.55531006 44.54172363 17.38796387 44.54711914 18.24584961 C44.43359375 20.1953125 44.43359375 20.1953125 43.43359375 21.1953125 C41.91626877 21.30228396 40.39409442 21.34152371 38.87304688 21.35302734 C37.90113403 21.36328949 36.92922119 21.37355164 35.92785645 21.38412476 C34.86756226 21.39142609 33.80726807 21.39872742 32.71484375 21.40625 C30.4804617 21.4343402 28.2460868 21.46300478 26.01171875 21.4921875 C22.48112349 21.53330924 18.95065881 21.57018444 15.41992188 21.59667969 C12.01794501 21.62443921 8.61658129 21.67033705 5.21484375 21.71875 C3.64869324 21.7236293 3.64869324 21.7236293 2.05090332 21.72860718 C-5.57010183 21.85522368 -12.41821998 22.59463688 -18.44140625 27.5703125 C-23.79132958 34.17904132 -23.82652134 36.62594548 -25.56640625 46.1953125 C-2.46640625 46.1953125 20.63359375 46.1953125 44.43359375 46.1953125 C44.43359375 53.1253125 44.43359375 60.0553125 44.43359375 67.1953125 C21.33359375 67.1953125 -1.76640625 67.1953125 -25.56640625 67.1953125 C-24.90640625 72.4753125 -24.24640625 77.7553125 -23.56640625 83.1953125 C-22.90640625 83.1953125 -22.24640625 83.1953125 -21.56640625 83.1953125 C-21.13328125 83.9378125 -20.70015625 84.6803125 -20.25390625 85.4453125 C-17.38031645 90.12819958 -14.02644393 92.36658098 -8.74606323 93.78704834 C-4.19149045 94.64014993 0.43440273 94.5589099 5.0546875 94.609375 C6.15458511 94.62874115 7.25448273 94.6481073 8.38771057 94.6680603 C11.88209408 94.72758158 15.37651101 94.77413177 18.87109375 94.8203125 C21.24806081 94.85851751 23.6250144 94.8975707 26.00195312 94.9375 C31.8123899 95.03326065 37.62289145 95.11739303 43.43359375 95.1953125 C43.43359375 101.4653125 43.43359375 107.7353125 43.43359375 114.1953125 C36.41255663 114.29568472 29.39195516 114.36747696 22.37036133 114.41503906 C19.99170642 114.43490792 17.61309868 114.46201242 15.23461914 114.49707031 C3.20504879 114.66968284 -8.58865194 114.6352197 -20.4609375 112.4921875 C-21.31531906 112.34460999 -22.16970062 112.19703247 -23.04997253 112.04498291 C-28.31578448 110.95607153 -31.01539912 109.4359439 -34.56640625 105.1953125 C-37.21099362 102.83641778 -39.87930745 100.50746401 -42.5546875 98.18359375 C-43.21855469 97.52746094 -43.88242187 96.87132812 -44.56640625 96.1953125 C-44.56640625 95.5353125 -44.56640625 94.8753125 -44.56640625 94.1953125 C-45.22640625 94.1953125 -45.88640625 94.1953125 -46.56640625 94.1953125 C-49.4350171 88.84057225 -51.24005057 84.1128994 -52.56640625 78.1953125 C-52.89640625 77.5353125 -53.22640625 76.8753125 -53.56640625 76.1953125 C-55.99836597 58.25960955 -56.61721584 39.5208183 -47.56640625 23.1953125 C-46.90640625 22.8653125 -46.24640625 22.5353125 -45.56640625 22.1953125 C-45.23640625 21.2053125 -44.90640625 20.2153125 -44.56640625 19.1953125 C-43.57640625 18.5353125 -42.58640625 17.8753125 -41.56640625 17.1953125 C-41.17453125 16.4528125 -40.78265625 15.7103125 -40.37890625 14.9453125 C-35.16496606 7.03450669 -25.29909402 2.50045783 -16.26589966 0.59234619 C-10.86892822 -0.20142478 -5.44317289 -0.04597142 0 0 Z " fill="#5BA0DB" transform="translate(561.56640625,276.8046875)"/>
<path d="M0 0 C0.98613281 0.79083984 0.98613281 0.79083984 1.9921875 1.59765625 C2.62898437 2.07332031 3.26578125 2.54898437 3.921875 3.0390625 C10.6816646 8.36275946 14.48612202 14.53112242 15.703125 23.0859375 C16.80520231 36.47468756 17.33501664 48.38771016 10.9921875 60.59765625 C10.3321875 60.59765625 9.6721875 60.59765625 8.9921875 60.59765625 C8.75242187 61.34660156 8.51265625 62.09554687 8.265625 62.8671875 C6.80331182 66.00263814 5.37887188 67.24371182 2.6171875 69.28515625 C1.84632813 69.86652344 1.07546875 70.44789063 0.28125 71.046875 C-2.98563704 73.26010734 -5.01221674 74.59765625 -9.0078125 74.59765625 C-9.0078125 75.25765625 -9.0078125 75.91765625 -9.0078125 76.59765625 C-16.03641317 78.76559673 -22.62216714 78.89767204 -29.9453125 78.84765625 C-31.63817383 78.85925781 -31.63817383 78.85925781 -33.36523438 78.87109375 C-39.89672478 78.8558954 -45.69480488 78.2846954 -52.0078125 76.59765625 C-52.12898437 75.95441406 -52.25015625 75.31117188 -52.375 74.6484375 C-52.58382812 73.97167969 -52.79265625 73.29492188 -53.0078125 72.59765625 C-53.7090625 72.32953125 -54.4103125 72.06140625 -55.1328125 71.78515625 C-58.7545418 70.28922458 -60.71068377 68.08237291 -63.359375 65.25390625 C-65.1076729 63.3877694 -65.1076729 63.3877694 -68.0078125 61.59765625 C-69.06134093 59.28799777 -70.06500346 56.95467885 -71.0078125 54.59765625 C-71.3378125 54.26765625 -71.6678125 53.93765625 -72.0078125 53.59765625 C-73.00677586 47.41967009 -73.19082923 41.34733641 -73.1953125 35.09765625 C-73.20755859 34.19917969 -73.21980469 33.30070312 -73.23242188 32.375 C-73.24466984 26.76543165 -72.5987073 21.98028845 -71.0078125 16.59765625 C-70.3478125 16.59765625 -69.6878125 16.59765625 -69.0078125 16.59765625 C-68.9871875 15.77265625 -68.9665625 14.94765625 -68.9453125 14.09765625 C-66.97315096 6.73491983 -61.0419696 2.19369507 -54.70703125 -1.58984375 C-53.0078125 -2.40234375 -53.0078125 -2.40234375 -51.0078125 -2.40234375 C-51.0078125 -3.06234375 -51.0078125 -3.72234375 -51.0078125 -4.40234375 C-36.32333397 -10.88079016 -12.88727298 -9.60644708 0 0 Z " fill="#F8F8F7" transform="translate(994.0078125,314.40234375)"/>
<path d="M0 0 C4.03801774 -0.17367408 8.07457791 -0.30034608 12.11547852 -0.38452148 C13.48825967 -0.41962146 14.86078097 -0.46731822 16.23266602 -0.52807617 C27.60871591 -1.019099 27.60871591 -1.019099 30.94482422 1.42456055 C32.25357436 3.23391616 33.1422592 4.94322555 34 7 C34.51046875 7.82886719 35.0209375 8.65773438 35.546875 9.51171875 C35.94390625 10.22972656 36.3409375 10.94773437 36.75 11.6875 C37.15734375 12.41324219 37.5646875 13.13898438 37.984375 13.88671875 C38.96355368 15.92416362 39.5416429 17.79291094 40 20 C40.66 20 41.32 20 42 20 C43.40234375 21.79296875 43.40234375 21.79296875 44.9375 24.1875 C45.46730469 25.00605469 45.99710938 25.82460938 46.54296875 26.66796875 C47.64195467 28.4269355 48.70494014 30.20846882 49.75 32 C50.84593522 34.14023845 50.84593522 34.14023845 53 35 C53.39638672 33.92105469 53.39638672 33.92105469 53.80078125 32.8203125 C55.02733687 29.93570938 56.47636841 27.49847406 58.1875 24.875 C59.11755859 23.43833984 59.11755859 23.43833984 60.06640625 21.97265625 C61.02353516 20.50119141 61.02353516 20.50119141 62 19 C63.21064234 17.10564032 64.41903908 15.20984333 65.625 13.3125 C66.15351562 12.48363281 66.68203125 11.65476562 67.2265625 10.80078125 C69.00226747 8.20012194 69.00226747 8.20012194 69.80249023 5.90576172 C70.94673259 3.33640461 71.8428505 1.82820885 74 0 C78.94207194 -1.01341109 83.80391119 -0.75350861 88.8125 -0.5 C90.18674586 -0.45984294 91.56110386 -0.42334594 92.93554688 -0.390625 C96.29321475 -0.29637467 99.64518101 -0.16490272 103 0 C96.56928737 13.0892444 87.39473162 25.11062897 79 37 C77.18732229 39.57752063 75.3773552 42.15645039 73.58203125 44.74609375 C72.6247288 46.10995428 71.64804995 47.46086296 70.63671875 48.78515625 C68.80023148 51.2527388 67.97961569 52.56173729 68.125 55.6875 C68.98407951 58.21916233 68.98407951 58.21916233 71 61 C71 61.99 71 62.98 71 64 C71.598125 64.226875 72.19625 64.45375 72.8125 64.6875 C75.61108641 66.36665184 76.39779567 68.17281919 78 71 C82.19791996 78.15501236 82.19791996 78.15501236 86.875 85 C89 88 89 88 89 90 C89.66 90 90.32 90 91 90 C93.04169485 92.90548882 94 94.40142046 94 98 C94.66 98 95.32 98 96 98 C96.33 99.32 96.66 100.64 97 102 C97.66 102 98.32 102 99 102 C99.598125 103.0725 100.19625 104.145 100.8125 105.25 C102.03558027 107.40453641 103.25021742 109.33064445 104.75 111.3125 C106 113 106 113 106 115 C96.43 115 86.86 115 77 115 C72 106 72 106 72 104 C71.34 104 70.68 104 70 104 C64.62870159 94.58997722 64.62870159 94.58997722 63 90 C62.34 90 61.68 90 61 90 C58 84.25 58 84.25 58 82 C57.34 82 56.68 82 56 82 C55.34 80.02 54.68 78.04 54 76 C50.18298486 77.4770189 48.82199828 79.40490579 46.75 82.875 C43.63303328 87.97911608 40.41102972 92.96500066 36.9609375 97.8515625 C34.8702155 100.96915973 34.8702155 100.96915973 33.6640625 104.6484375 C30.67239604 111.94557102 30.67239604 111.94557102 27 114 C18.15030992 115.66427869 8.91484745 114.78208535 0 114 C0 112.68 0 111.36 0 110 C0.66 110 1.32 110 2 110 C2.66 108.02 3.32 106.04 4 104 C4.66 104 5.32 104 6 104 C6.33 102.35 6.66 100.7 7 99 C7.66 99 8.32 99 9 99 C9.26167969 98.28585937 9.52335938 97.57171875 9.79296875 96.8359375 C11.90891775 91.86448451 15.02556133 87.49371015 18 83 C18.495 82.25105469 18.99 81.50210938 19.5 80.73046875 C20.6077456 79.11170956 21.79575558 77.54831425 23 76 C23.66 76 24.32 76 25 76 C25.103125 75.443125 25.20625 74.88625 25.3125 74.3125 C26.14178408 71.5230899 27.34299056 69.3860936 29 67 C29.66 67 30.32 67 31 67 C31.28875 66.236875 31.5775 65.47375 31.875 64.6875 C33 62 33 62 35 59 C35.66 59 36.32 59 37 59 C36.690625 58.071875 36.38125 57.14375 36.0625 56.1875 C35.375 54.125 34.6875 52.0625 34 50 C33.34 50 32.68 50 32 50 C30.59431196 48.05017465 29.2704964 46.04049422 28 44 C27.443125 43.113125 26.88625 42.22625 26.3125 41.3125 C25 39 25 39 24 36 C23.34 36 22.68 36 22 36 C21.67 34.68 21.34 33.36 21 32 C20.34 32 19.68 32 19 32 C17.35910577 29.65586539 16.09471211 27.19991138 14.87109375 24.6171875 C12.4250944 19.47982208 10.15718534 15.95439581 6 12 C0 4.02369668 0 4.02369668 0 0 Z " fill="#71C3D8" transform="translate(614,277)"/>
<path d="M0 0 C7.36489901 -0.04966474 14.72969918 -0.0858448 22.09472656 -0.10986328 C24.5970225 -0.11988281 27.09930684 -0.13350213 29.6015625 -0.15087891 C33.21096673 -0.17530561 36.82021531 -0.18652394 40.4296875 -0.1953125 C41.53738495 -0.20563507 42.6450824 -0.21595764 43.78634644 -0.22659302 C50.43155514 -0.22753973 56.54386197 0.40726999 63 2 C63 2.66 63 3.32 63 4 C63.70125 4.185625 64.4025 4.37125 65.125 4.5625 C70.20108809 7.10054405 73.80945107 11.78836227 76 17 C76 17.99 76 18.98 76 20 C76.66 20 77.32 20 78 20 C79.35144654 22.70289308 79.11975165 24.80069806 79.11352539 27.82666016 C79.11341209 29.65833237 79.11341209 29.65833237 79.11329651 31.52700806 C79.10818952 32.86435995 79.10297352 34.20171143 79.09765625 35.5390625 C79.0957914 36.90383859 79.09436781 38.26861534 79.09336853 39.63339233 C79.08954863 43.22715093 79.07972283 46.82086917 79.06866455 50.41461182 C79.05843911 54.08108982 79.05386848 57.74757435 79.04882812 61.4140625 C79.0381001 68.60939341 79.02102999 75.80469105 79 83 C70.07261759 83.04634244 61.1452766 83.08187889 52.21780014 83.10362434 C48.07240296 83.11406111 43.92708809 83.12821835 39.78173828 83.15087891 C35.78117311 83.17261111 31.78068709 83.18456943 27.78006744 83.18975449 C26.25384525 83.19344956 24.72762739 83.20066511 23.2014389 83.21146011 C21.06355936 83.22598018 18.92600686 83.22797775 16.78808594 83.22705078 C15.5711908 83.231492 14.35429565 83.23593323 13.1005249 83.24050903 C10.14410837 83.01117855 8.48430115 82.55421583 6 81 C6 80.34 6 79.68 6 79 C5.46375 78.79375 4.9275 78.5875 4.375 78.375 C-0.10122717 75.78350006 -3.22211152 73.34774488 -4.86328125 68.39453125 C-6.46689035 60.13648985 -7.78892029 50.4717869 -3.16796875 43.0625 C2.41509373 36.51880837 7.50930271 33.32196111 16 32 C19.08010744 31.86711481 22.15581411 31.88360785 25.23828125 31.90234375 C26.11904831 31.9037587 26.99981537 31.90517365 27.90727234 31.90663147 C30.70905003 31.91221063 33.51074662 31.92475929 36.3125 31.9375 C38.21679572 31.94251769 40.12109269 31.94708013 42.02539062 31.95117188 C46.68362481 31.96217323 51.34179867 31.97942351 56 32 C55.72708632 30.54998138 55.44061418 29.10251023 55.1484375 27.65625 C54.99036621 26.84994141 54.83229492 26.04363281 54.66943359 25.21289062 C53.67036517 21.91035372 51.93478053 20.67701745 49 19 C46.10196869 18.10332117 43.4405389 17.8541679 40.41503906 17.79467773 C39.51440735 17.77473251 38.61377563 17.75478729 37.68585205 17.73423767 C36.24033966 17.70916893 36.24033966 17.70916893 34.765625 17.68359375 C33.77246277 17.66281265 32.77930054 17.64203156 31.75604248 17.62062073 C28.58743118 17.55530251 25.41873789 17.49632261 22.25 17.4375 C20.10025198 17.39429793 17.95051222 17.35068309 15.80078125 17.30664062 C10.53393792 17.19963923 5.26701222 17.09832178 0 17 C0 11.39 0 5.78 0 0 Z " fill="#F8F9F8" transform="translate(1124,308)"/>
<path d="M0 0 C7.92 0 15.84 0 24 0 C24 38.28 24 76.56 24 116 C16.08 116 8.16 116 0 116 C0 77.72 0 39.44 0 0 Z " fill="#EFF0F0" transform="translate(884,276)"/>
<path d="M0 0 C7.59 0 15.18 0 23 0 C23 37.62 23 75.24 23 114 C15.41 114 7.82 114 0 114 C0 76.38 0 38.76 0 0 Z " fill="#F7F8F8" transform="translate(1222,277)"/>
<path d="M0 0 C0 0.66 0 1.32 0 2 C1.0209375 2.0928125 1.0209375 2.0928125 2.0625 2.1875 C7.40078022 3.66404559 10.94244198 6.14318154 13.6953125 10.9765625 C15.66039203 15.93282861 15.36087091 20.99749067 15.25 26.25 C15.24484375 27.24257813 15.2396875 28.23515625 15.234375 29.2578125 C15.15550595 36.53348214 15.15550595 36.53348214 14 40 C13.34 40 12.68 40 12 40 C11.731875 40.763125 11.46375 41.52625 11.1875 42.3125 C9.25620475 46.6833261 6.77696414 48.62671434 2.2890625 50.421875 C-3.85484498 51.9735786 -11.31197642 52.34341282 -17.0625 49.375 C-21.54546394 45.75047596 -23.64830494 42.81709115 -24.75 37.125 C-24.8325 36.09375 -24.915 35.0625 -25 34 C-25.66 34 -26.32 34 -27 34 C-27.64263525 14.3877243 -27.64263525 14.3877243 -21.1875 6.1875 C-14.8869404 -0.52696497 -8.77918131 -0.38355646 0 0 Z " fill="#111725" transform="translate(971,324)"/>
<path d="M0 0 C27.26649077 0 27.26649077 0 32.0234375 3.48046875 C32.46945312 4.04378906 32.91546875 4.60710937 33.375 5.1875 C33.83648438 5.73792969 34.29796875 6.28835938 34.7734375 6.85546875 C37.85469808 12.2427683 38.34164865 17.9137615 38.3125 24 C38.32861328 24.67289062 38.34472656 25.34578125 38.36132812 26.0390625 C38.36745353 32.38498385 36.70445508 36.80855776 32.8125 41.8125 C23.87067175 48.76725531 10.03101751 46 0 46 C0 30.82 0 15.64 0 0 Z " fill="#0F1524" transform="translate(1047,327)"/>
<path d="M0 0 C0.66 0 1.32 0 2 0 C2.51046875 1.17755859 2.51046875 1.17755859 3.03125 2.37890625 C8.05320028 13.26425062 13.78827324 18.82155554 25 23 C25 23.66 25 24.32 25 25 C24.21496094 25.3403125 23.42992187 25.680625 22.62109375 26.03125 C11.73574938 31.05320028 6.17844446 36.78827324 2 48 C1.34 48 0.68 48 0 48 C-0.3403125 47.21496094 -0.680625 46.42992187 -1.03125 45.62109375 C-6.05320028 34.73574938 -11.78827324 29.17844446 -23 25 C-23 24.34 -23 23.68 -23 23 C-22.21496094 22.6596875 -21.42992187 22.319375 -20.62109375 21.96875 C-9.73574938 16.94679972 -4.17844446 11.21172676 0 0 Z " fill="#82858C" transform="translate(1575,560)"/>
<path d="M0 0 C2.18554688 1.40039062 2.18554688 1.40039062 4 4 C4.60170884 7.36221134 4.56026352 10.68559957 4.53125 14.09375 C4.5350769 15.07742554 4.53890381 16.06110107 4.54284668 17.07458496 C4.54556627 19.15243555 4.53820182 21.23032035 4.52148438 23.30810547 C4.50007584 26.48873211 4.52128488 29.66709987 4.546875 32.84765625 C4.54423173 34.86719249 4.53910678 36.88672732 4.53125 38.90625 C4.53934692 39.85737671 4.54744385 40.80850342 4.55578613 41.78845215 C4.46276055 48.33798841 4.46276055 48.33798841 2.18554688 51.59570312 C-1.07169531 53.68860494 -3.22050931 53.60741815 -7 53 C-9.44315277 50.86278716 -10.80451891 49.11879508 -11.37133789 45.87472534 C-11.53004868 43.25059868 -11.55428412 40.65619838 -11.53125 38.02734375 C-11.5350769 37.06727921 -11.53890381 36.10721466 -11.54284668 35.11805725 C-11.54556297 33.09326119 -11.53822166 31.06842988 -11.52148438 29.04370117 C-11.50004742 25.94435534 -11.52130789 22.84732137 -11.546875 19.74804688 C-11.54423213 17.77864072 -11.53910801 15.809236 -11.53125 13.83984375 C-11.53934692 12.91372787 -11.54744385 11.987612 -11.55578613 11.03343201 C-11.46281327 4.65903563 -11.46281327 4.65903563 -9.18554688 1.41625977 C-5.95970803 -0.67412128 -3.75559162 -0.53651309 0 0 Z " fill="#2090BE" transform="translate(1309,254)"/>
<path d="M0 0 C2.09746318 3.14619478 2.25633924 3.92140308 2.29052734 7.515625 C2.3096669 8.88219238 2.3096669 8.88219238 2.32919312 10.27636719 C2.33141876 11.25766602 2.33364441 12.23896484 2.3359375 13.25 C2.3425943 14.2596582 2.3492511 15.26931641 2.35610962 16.30957031 C2.36623636 18.44464291 2.37092663 20.57974716 2.37060547 22.71484375 C2.37498329 25.98750637 2.41131612 29.25882566 2.44921875 32.53125 C2.45508586 34.60416204 2.45905596 36.67708051 2.4609375 38.75 C2.47530853 39.73129883 2.48967957 40.71259766 2.50448608 41.72363281 C2.49833282 42.63467773 2.49217957 43.54572266 2.48583984 44.484375 C2.48868988 45.28584961 2.49153992 46.08732422 2.49447632 46.91308594 C2 49 2 49 0.09902954 50.75732422 C-3.42098063 52.84125458 -5.96505219 52.39047882 -10 52 C-12.08009499 48.87985752 -12.25584487 48.14369535 -12.29052734 44.59204102 C-12.30328705 43.70424454 -12.31604675 42.81644806 -12.32919312 41.90174866 C-12.33141876 40.94546066 -12.33364441 39.98917267 -12.3359375 39.00390625 C-12.3425943 38.01881577 -12.3492511 37.03372528 -12.35610962 36.01878357 C-12.36623661 33.93498605 -12.37092662 31.85115609 -12.37060547 29.76733398 C-12.37497865 26.57807041 -12.41129821 23.39019053 -12.44921875 20.20117188 C-12.45508685 18.17708807 -12.45905629 16.15299769 -12.4609375 14.12890625 C-12.47530853 13.17464249 -12.48967957 12.22037872 -12.50448608 11.23719788 C-12.45884425 4.62858123 -12.45884425 4.62858123 -10.10058594 1.39794922 C-6.53834967 -0.97273475 -4.20362873 -0.47460324 0 0 Z " fill="#2196C3" transform="translate(1351,254)"/>
<path d="M0 0 C1.15468025 0.01061211 1.15468025 0.01061211 2.33268738 0.0214386 C4.77879178 0.049312 7.22256259 0.11202988 9.66796875 0.17578125 C11.33134702 0.20087357 12.99476137 0.22368512 14.65820312 0.24414062 C18.72556895 0.29485591 22.78792403 0.39269926 26.85546875 0.48828125 C26.85546875 6.09828125 26.85546875 11.70828125 26.85546875 17.48828125 C21.80033443 17.60317067 16.74973652 17.70266426 11.69433594 17.76293945 C9.97542974 17.78806492 8.25663019 17.82217172 6.53808594 17.86547852 C4.06548761 17.92622154 1.59430269 17.95450887 -0.87890625 17.9765625 C-1.64571716 18.00236893 -2.41252808 18.02817535 -3.20257568 18.05476379 C-7.05451533 18.05678297 -8.76194557 17.84470626 -11.62597656 15.17651367 C-13.64152763 11.60846981 -13.79359668 9.52691057 -13.14453125 5.48828125 C-9.32506496 0.42066547 -6.04681298 -0.21093773 0 0 Z " fill="#171C2C" transform="translate(1154.14453125,356.51171875)"/>
<path d="M0 0 C1.97265625 0.4609375 1.97265625 0.4609375 3.57543945 1.97485352 C5.54769595 5.48411228 5.36384574 8.78297032 5.30078125 12.69921875 C5.2979715 13.89770699 5.2979715 13.89770699 5.29510498 15.1204071 C5.28839203 16.80907367 5.27449249 18.49772488 5.25390625 20.1862793 C5.22289233 22.75389287 5.21294496 25.32088991 5.20703125 27.88867188 C5.19785407 29.53386155 5.18747604 31.17904505 5.17578125 32.82421875 C5.16940643 33.96519768 5.16940643 33.96519768 5.16290283 35.12922668 C5.00799753 46.85615851 5.00799753 46.85615851 2.72265625 50.3984375 C0.28954726 51.87568225 -1.23077199 51.88042326 -4.02734375 51.4609375 C-5.83984375 49.9609375 -5.83984375 49.9609375 -7.02734375 48.4609375 C-6.36734375 46.4809375 -5.70734375 44.5009375 -5.02734375 42.4609375 C-5.68734375 42.1309375 -6.34734375 41.8009375 -7.02734375 41.4609375 C-8.29045552 34.05121812 -8.213549 26.57528748 -8.21264648 19.07446289 C-8.21486541 17.00321844 -8.23317545 14.93248103 -8.25195312 12.86132812 C-8.25388672 11.55486328 -8.25582031 10.24839844 -8.2578125 8.90234375 C-8.26192139 7.71326416 -8.26603027 6.52418457 -8.27026367 5.29907227 C-7.80259847 -0.1648553 -4.83051781 0.19863812 0 0 Z " fill="#1A71AE" transform="translate(1327.02734375,268.5390625)"/>
<path d="M0 0 C2.9375 0.4375 2.9375 0.4375 4.59179688 1.56103516 C7.42330177 5.5093201 6.45438379 11.09348198 6.43847656 15.77929688 C6.43750618 17.79963629 6.47907903 19.81614869 6.5234375 21.8359375 C6.52601562 23.1146875 6.52859375 24.3934375 6.53125 25.7109375 C6.53833984 26.88060059 6.54542969 28.05026367 6.55273438 29.25537109 C5.75820045 33.36487714 4.16117132 34.85581074 0.9375 37.4375 C-1.75 37.875 -1.75 37.875 -4.0625 37.4375 C-8.84805505 32.65194495 -7.32322826 23.69460327 -7.375 17.375 C-7.40400391 16.19099609 -7.43300781 15.00699219 -7.46289062 13.78710938 C-7.47126953 12.64951172 -7.47964844 11.51191406 -7.48828125 10.33984375 C-7.50286377 9.30335693 -7.51744629 8.26687012 -7.5324707 7.19897461 C-6.75224393 2.61448367 -4.53630077 0.64804297 0 0 Z " fill="#1A6EAD" transform="translate(1286.0625,277.5625)"/>
<path d="M0 0 C0.66 0.33 1.32 0.66 2 1 C2.09898364 7.17467586 2.1715236 13.34888843 2.21972656 19.52416992 C2.23982397 21.62418667 2.26710666 23.72414758 2.30175781 25.82397461 C2.3503577 28.84502958 2.37298762 31.86534377 2.390625 34.88671875 C2.41127014 35.82335861 2.43191528 36.75999847 2.45318604 37.72502136 C2.45464366 41.97324299 2.38763799 44.35525623 0.15917969 48.06176758 C-2.6540653 50.58713528 -4.21698774 51.15440866 -8 51 C-10.86114242 48.98310329 -12.7219399 47.37726854 -13.43496704 43.84555054 C-13.57923255 41.17877922 -13.56183693 38.55640973 -13.48828125 35.88671875 C-13.48120651 34.91716751 -13.47413177 33.94761627 -13.46684265 32.94868469 C-13.43891874 29.86082863 -13.37618303 26.77480525 -13.3125 23.6875 C-13.28741458 21.59052103 -13.26460184 19.49351356 -13.24414062 17.39648438 C-13.18909838 12.26361991 -13.10283859 7.13212036 -13 2 C-12.67 2 -12.34 2 -12 2 C-11.67 14.21 -11.34 26.42 -11 39 C-10.01 39.33 -9.02 39.66 -8 40 C-8.66 41.98 -9.32 43.96 -10 46 C-8.17296773 48.2491908 -8.17296773 48.2491908 -5.5 48.25 C-2.82703227 48.2491908 -2.82703227 48.2491908 -1 46 C0.09798906 40.59061722 0.13234671 35.2760975 0.09765625 29.78515625 C0.09553383 28.50154457 0.09553383 28.50154457 0.09336853 27.19200134 C0.0878099 24.48213069 0.07526525 21.77234532 0.0625 19.0625 C0.05747965 17.21549599 0.05291768 15.36849068 0.04882812 13.52148438 C0.03785405 9.01429049 0.0206183 4.50715966 0 0 Z " fill="#0D3A68" transform="translate(1331,271)"/>
<path d="M0 0 C0.66 0 1.32 0 2 0 C2.0790203 18.69225255 1.86927353 37.37398498 1.53643799 56.06256104 C1.47446483 59.57032496 1.41509923 63.07813311 1.35546875 66.5859375 C1.23943092 73.39066858 1.12066806 80.19534949 1 87 C0.67 87 0.34 87 0 87 C-0.33 62.91 -0.66 38.82 -1 14 C-1.33 14.66 -1.66 15.32 -2 16 C-2.66 16 -3.32 16 -4 16 C-3.27275406 10.47293087 -1.66554027 5.30039859 0 0 Z " fill="#1B2A4D" transform="translate(469,305)"/>
<path d="M0 0 C0 2.92395837 -0.034366 5.84580685 -0.0703125 8.76953125 C-0.08895524 11.11718425 -0.10716645 13.46484071 -0.125 15.8125 C-0.14175781 16.98876953 -0.15851563 18.16503906 -0.17578125 19.37695312 C-0.18222656 20.51712891 -0.18867187 21.65730469 -0.1953125 22.83203125 C-0.20578613 23.87077393 -0.21625977 24.9095166 -0.22705078 25.97973633 C0.01948139 29.25914433 0.8414014 31.9334077 2 35 C5.43230448 34.73606499 5.43230448 34.73606499 9 34 C11.35709642 30.46435537 11.30009735 28.77974745 11.4140625 24.58203125 C11.45273438 23.32841797 11.49140625 22.07480469 11.53125 20.78320312 C11.5621875 19.47287109 11.593125 18.16253906 11.625 16.8125 C11.66319338 15.4771884 11.70224591 14.14190108 11.7421875 12.80664062 C11.83659153 9.53790112 11.92217017 6.26916936 12 3 C12.33 3 12.66 3 13 3 C13.14883585 7.18076075 13.25743418 11.36010137 13.32958984 15.54272461 C13.35967954 16.9638964 13.40056404 18.38488372 13.45263672 19.80541992 C13.87358536 31.58785481 13.87358536 31.58785481 11.72998047 35.05297852 C9.44905263 37.01751959 7.30204285 37.93527653 4.375 38.5625 C1.11934308 37.79142336 0.04897754 36.63956832 -2 34 C-2.48583984 30.64013672 -2.48583984 30.64013672 -2.4609375 26.6796875 C-2.46002106 25.9798172 -2.45910461 25.2799469 -2.4581604 24.55886841 C-2.45213486 23.08458646 -2.43642 21.61031615 -2.41162109 20.13623047 C-2.37500843 17.87552022 -2.37060255 15.61644513 -2.37109375 13.35546875 C-2.29527235 2.29527235 -2.29527235 2.29527235 0 0 Z " fill="#0D3867" transform="translate(1280,279)"/>
<path d="M0 0 C0.33 0.66 0.66 1.32 1 2 C9.91 2 18.82 2 28 2 C28 2.66 28 3.32 28 4 C18.43 4 8.86 4 -1 4 C-0.67 2.68 -0.34 1.36 0 0 Z " fill="#325675" transform="translate(613,389)"/>
<path d="M0 0 C0.66 0 1.32 0 2 0 C4.42857143 6.28571429 4.42857143 6.28571429 3 10 C2.67 10 2.34 10 2 10 C1.67 18.58 1.34 27.16 1 36 C0.67 36 0.34 36 0 36 C0 24.12 0 12.24 0 0 Z " fill="#182038" transform="translate(384,309)"/>
<path d="M0 0 C2.50316658 2.39813861 2.97741689 3.75068246 3.29296875 7.234375 C3.25816406 8.39453125 3.22335937 9.5546875 3.1875 10.75 C3.16042969 11.92046875 3.13335938 13.0909375 3.10546875 14.296875 C3.07066406 15.18890625 3.03585937 16.0809375 3 17 C2.67 17 2.34 17 2 17 C1.95101563 16.24074219 1.90203125 15.48148437 1.8515625 14.69921875 C1.73941406 13.20841797 1.73941406 13.20841797 1.625 11.6875 C1.55539062 10.70136719 1.48578125 9.71523438 1.4140625 8.69921875 C1.16134528 5.78471567 1.16134528 5.78471567 -1 3 C-3.44480079 3.18828772 -3.44480079 3.18828772 -6 4 C-7.36020151 5.96758273 -7.36020151 5.96758273 -8 8 C-8.33 8 -8.66 8 -9 8 C-9.22223194 5.25913944 -9.34781139 3.56036279 -7.875 1.1875 C-5.09996189 -0.57002414 -3.21070255 -0.46822746 0 0 Z " fill="#20A7D7" transform="translate(1329,269)"/>
<path d="M0 0 C8.91 0 17.82 0 27 0 C27 0.33 27 0.66 27 1 C25.88757935 1.029729 25.88757935 1.029729 24.75268555 1.06005859 C21.39726166 1.15522928 18.04246714 1.26494094 14.6875 1.375 C13.52025391 1.4059375 12.35300781 1.436875 11.15039062 1.46875 C9.47299805 1.52675781 9.47299805 1.52675781 7.76171875 1.5859375 C6.2142395 1.63306885 6.2142395 1.63306885 4.63549805 1.68115234 C1.77156764 1.82674629 1.77156764 1.82674629 -1 4 C-0.67 2.68 -0.34 1.36 0 0 Z " fill="#8ADDDF" transform="translate(689,278)"/>
<path d="M0 0 C0 3.58050122 -0.83159845 4.51032702 -2.875 7.375 C-4.62274432 9.8319739 -5.95900546 11.8890923 -7.0078125 14.7265625 C-7.49894531 15.85191406 -7.49894531 15.85191406 -8 17 C-8.99 17.33 -9.98 17.66 -11 18 C-9.5810861 14.10508136 -7.74229459 10.79470749 -5.5 7.3125 C-4.8915625 6.35988281 -4.283125 5.40726562 -3.65625 4.42578125 C-2 2 -2 2 0 0 Z " fill="#40799E" transform="translate(634,358)"/>
<path d="M0 0 C0.33 0 0.66 0 1 0 C1 2.97 1 5.94 1 9 C1.99 9.33 2.98 9.66 4 10 C3.649375 10.94875 3.29875 11.8975 2.9375 12.875 C1.64973223 15.87060172 1.64973223 15.87060172 3 18 C2.01 17.67 1.02 17.34 0 17 C0 11.39 0 5.78 0 0 Z " fill="#09408D" transform="translate(1319,301)"/>
<path d="M0 0 C0.66 0 1.32 0 2 0 C0.61811547 3.21043882 -0.92421903 5.04936365 -3.625 7.25 C-4.57246094 8.03117187 -4.57246094 8.03117187 -5.5390625 8.828125 C-6.02117188 9.21484375 -6.50328125 9.6015625 -7 10 C-7 7 -7 7 -4.625 4.3125 C-2 2 -2 2 0 2 C0 1.34 0 0.68 0 0 Z " fill="#BEBFC2" transform="translate(779,286)"/>
<path d="M0 0 C0.66 0.33 1.32 0.66 2 1 C0.50328459 5.49014624 -1.83368341 9.47848764 -5 13 C-5.66 13 -6.32 13 -7 13 C-7 12.34 -7 11.68 -7 11 C-6.34 11 -5.68 11 -5 11 C-4.34 9.02 -3.68 7.04 -3 5 C-2.34 5 -1.68 5 -1 5 C-0.67 3.35 -0.34 1.7 0 0 Z " fill="#5093BC" transform="translate(621,376)"/>
<path d="M0 0 C1 4 1 4 -0.6875 7.1875 C-3 10 -3 10 -7 11 C-4.69 7.37 -2.38 3.74 0 0 Z " fill="#49515E" transform="translate(1104,369)"/>
<path d="M0 0 C0.66 0 1.32 0 2 0 C1.6875 2.375 1.6875 2.375 1 5 C0.01 5.66 -0.98 6.32 -2 7 C-2.33 7.99 -2.66 8.98 -3 10 C-3.99 10.33 -4.98 10.66 -6 11 C-6 10.34 -6 9.68 -6 9 C-5.34 9 -4.68 9 -4 9 C-3.896875 8.443125 -3.79375 7.88625 -3.6875 7.3125 C-2.85821592 4.5230899 -1.65700944 2.3860936 0 0 Z " fill="#427FA1" transform="translate(643,344)"/>
<path d="M0 0 C2.94721162 2.74395564 5.19168608 5.38337216 7 9 C6.67 9.66 6.34 10.32 6 11 C4.5 9.6875 4.5 9.6875 3 8 C3 7.01 3 6.02 3 5 C2.01 5 1.02 5 0 5 C0 3.35 0 1.7 0 0 Z " fill="#43809D" transform="translate(644,280)"/>
<path d="M0 0 C0.66 0.33 1.32 0.66 2 1 C-0.46153846 5.8 -0.46153846 5.8 -3.1875 6.8125 C-3.785625 6.874375 -4.38375 6.93625 -5 7 C-3.70700306 4.11562221 -2.34058637 2.12780579 0 0 Z " fill="#434A57" transform="translate(953,327)"/>
<path d="M0 0 C0.66 0.33 1.32 0.66 2 1 C1.30058404 4.14737182 0.23921302 7.02588876 -1 10 C-1.33 10 -1.66 10 -2 10 C-2.25 3.375 -2.25 3.375 0 0 Z " fill="#525560" transform="translate(1143,359)"/>
<path d="M0 0 C1.32 0.33 2.64 0.66 4 1 C1.03 3.475 1.03 3.475 -2 6 C-2.66 5.67 -3.32 5.34 -4 5 C-2.68 3.35 -1.36 1.7 0 0 Z " fill="#2C323F" transform="translate(1002,377)"/>
</svg>
