<svg xmlns="http://www.w3.org/2000/svg" viewBox="0 0 32 32"><circle cx="16" cy="16" r="16" fill="#f7931a"/><path d="M23.2 14.1c.3-2-1.2-3.1-3.3-3.8l.7-2.7-1.6-.4-.6 2.6c-.4-.1-.9-.2-1.3-.3l.7-2.6-1.7-.4-.7 2.7c-.4-.1-.7-.2-1-.2v0l-2.3-.6-.4 1.8s1.2.3 1.2.3c.7.2.8.6.8 1l-2 7.8c-.1.2-.3.6-.9.4 0 0-1.2-.3-1.2-.3l-.8 1.9 2.2.5c.4.1.8.2 1.2.3l-.7 2.7 1.6.4.7-2.7c.4.1.9.2 1.3.3l-.7 2.7 1.7.4.7-2.7c2.8.5 4.9.3 5.8-2.2.7-2-.1-3.1-1.5-3.9 1-.3 1.8-1 2-2.5zm-3.6 5c-.5 2-4 .9-5.1.7l.9-3.7c1.1.3 4.7.8 4.2 3zm.5-5.1c-.5 1.8-3.3.9-4.3.7l.8-3.3c1 .2 4 .7 3.5 2.6z" fill="#fff"/></svg>
